# Tiled2Unity generated file. Do not modify by hand.
# Wavefront file for 'house_mesh_0002.obj'

# Vertices (Count = 72)
v -9 -22 0
v -10 -22 0
v -10 -21 0
v -9 -21 0
v -8 -22 0
v -9 -22 0
v -9 -21 0
v -8 -21 0
v -7 -22 0
v -8 -22 0
v -8 -21 0
v -7 -21 0
v -4 -22 0
v -5 -22 0
v -5 -21 0
v -4 -21 0
v -7 -24 0
v -8 -24 0
v -8 -23 0
v -7 -23 0
v -6 -24 0
v -7 -24 0
v -7 -23 0
v -6 -23 0
v -5 -24 0
v -6 -24 0
v -6 -23 0
v -5 -23 0
v -7 -25 0
v -8 -25 0
v -8 -24 0
v -7 -24 0
v -6 -25 0
v -7 -25 0
v -7 -24 0
v -6 -24 0
v -5 -25 0
v -6 -25 0
v -6 -24 0
v -5 -24 0
v -7 -26 0
v -8 -26 0
v -8 -25 0
v -7 -25 0
v -6 -26 0
v -7 -26 0
v -7 -25 0
v -6 -25 0
v -5 -26 0
v -6 -26 0
v -6 -25 0
v -5 -25 0
v -7 -27 0
v -8 -27 0
v -8 -26 0
v -7 -26 0
v -6 -27 0
v -7 -27 0
v -7 -26 0
v -6 -26 0
v -5 -27 0
v -6 -27 0
v -6 -26 0
v -5 -26 0
v -4 -28 0
v -5 -28 0
v -5 -27 0
v -4 -27 0
v -4 -29 0
v -5 -29 0
v -5 -28 0
v -4 -28 0

# Texture cooridinates (Count = 68)
vt 0.1756198 0.8726236
vt 0.1921488 0.8726236
vt 0.1921488 0.9030418
vt 0.1756198 0.9030418
vt 0.2107438 0.8079848
vt 0.2272727 0.8079848
vt 0.2272727 0.838403
vt 0.2107438 0.838403
vt 0.1931818 0.8079848
vt 0.2097107 0.8079848
vt 0.2097107 0.838403
vt 0.1931818 0.838403
vt 0.2634298 0.8726236
vt 0.2799587 0.8726236
vt 0.2799587 0.9030418
vt 0.2634298 0.9030418
vt 0.3863636 0.8726236
vt 0.4028926 0.8726236
vt 0.4028926 0.9030418
vt 0.3863636 0.9030418
vt 0.3688017 0.7756654
vt 0.3853306 0.7756654
vt 0.3853306 0.8060837
vt 0.3688017 0.8060837
vt 0.3688017 0.8726236
vt 0.3853306 0.8726236
vt 0.3853306 0.9030418
vt 0.3688017 0.9030418
vt 0.2107438 0.2585551
vt 0.2272727 0.2585551
vt 0.2272727 0.2889734
vt 0.2107438 0.2889734
vt 0.1931818 0.2585551
vt 0.2097107 0.2585551
vt 0.2097107 0.2889734
vt 0.1931818 0.2889734
vt 0.1756198 0.2585551
vt 0.1921488 0.2585551
vt 0.1921488 0.2889734
vt 0.1756198 0.2889734
vt 0.2107438 0.2262357
vt 0.2272727 0.2262357
vt 0.2272727 0.256654
vt 0.2107438 0.256654
vt 0.1931818 0.2262357
vt 0.2097107 0.2262357
vt 0.2097107 0.256654
vt 0.1931818 0.256654
vt 0.1756198 0.2262357
vt 0.1921488 0.2262357
vt 0.1921488 0.256654
vt 0.1756198 0.256654
vt 0.2107438 0.1939163
vt 0.2272727 0.1939163
vt 0.2272727 0.2243346
vt 0.2107438 0.2243346
vt 0.1931818 0.1939163
vt 0.2097107 0.1939163
vt 0.2097107 0.2243346
vt 0.1931818 0.2243346
vt 0.1756198 0.1939163
vt 0.1921488 0.1939163
vt 0.1921488 0.2243346
vt 0.1756198 0.2243346
vt 0.2283058 0.1292776
vt 0.2448347 0.1292776
vt 0.2448347 0.1596958
vt 0.2283058 0.1596958

# Normal
vn 0 0 -1

# Mesh description
g house_mesh_0002

# Faces
f 1/1/1 2/2/1 3/3/1 4/4/1
f 5/5/1 6/6/1 7/7/1 8/8/1
f 9/9/1 10/10/1 11/11/1 12/12/1
f 13/13/1 14/14/1 15/15/1 16/16/1
f 17/17/1 18/18/1 19/19/1 20/20/1
f 21/21/1 22/22/1 23/23/1 24/24/1
f 25/25/1 26/26/1 27/27/1 28/28/1
f 29/29/1 30/30/1 31/31/1 32/32/1
f 33/33/1 34/34/1 35/35/1 36/36/1
f 37/37/1 38/38/1 39/39/1 40/40/1
f 41/41/1 42/42/1 43/43/1 44/44/1
f 45/45/1 46/46/1 47/47/1 48/48/1
f 49/49/1 50/50/1 51/51/1 52/52/1
f 53/53/1 54/54/1 55/55/1 56/56/1
f 57/57/1 58/58/1 59/59/1 60/60/1
f 61/61/1 62/62/1 63/63/1 64/64/1
f 65/65/1 66/66/1 67/67/1 68/68/1
f 69/65/1 70/66/1 71/67/1 72/68/1

